<svg id="SvgjsSvg1278" width="250px" height="250px" xmlns="http://www.w3.org/2000/svg" version="1.1" xlink="http://www.w3.org/1999/xlink" xmlns:svgjs="http://svgjs.comsvgjs" preserveAspectRatio="xMidYMid meet" viewBox="80 0 60 60" overflow="visible"><defs id="SvgjsDefs1279"></defs><g id="SvgjsG1280" transform="scale(0.89102085241639)" opacity="1"><g id="SvgjsG1281" class="tUuhoZcoAC" transform="translate(109.72572426479451, 0.000002112950355126486) scale(0.9404912460379016)" light-content="false" non-strokable="false" fill="#0f58aa"><g><path d="M97.642 33.692s5.121 4.716.27 9.569c-4.853 4.851-9.434-.137-9.434-.137l-38.52-24.796-38.52 24.796s-4.448 5.255-9.3.404c-4.851-4.852.067-9.636.067-9.636L49.958 0l47.684 33.692z"></path><path d="M50.556 11.136L8.89 38.582v27.445C8.89 79.75 22.611 80 22.611 80H77.5c13.723 0 14.723-13.973 14.723-13.973V38.582L50.556 11.136zm33.889 54.891s-.084 7.306-6.945 7.306H22.611s-7.055-.444-7.055-7.306V52.304C15.556 38.582 50 17.999 50 17.999s34.444 20.583 34.444 34.306l.001 13.722z"></path><path d="M44.445 45.555h12.223v27.777H44.445zm26.667-40v5.581L84.445 24.86V5.555zm-47.778 40V60H30v-6.667h6.667v-7.778zm41.111 0v7.778h6.667V60h6.666V45.555z"></path></g></g><g id="SvgjsG1282" class="text" transform="translate(158.5800018310547, 130.07930406152073) scale(1)" light-content="false" fill="#0f58aa"></g></g></svg>
